<svg width="80" height="80" viewBox="0 0 80 80" fill="none" xmlns="http://www.w3.org/2000/svg">
<path d="M80 61.9599C78.8356 62.4003 77.5504 62.3993 76.3867 61.9572C75.2231 61.5151 74.2615 60.6623 73.6833 59.5599L62.1833 43.6566L60.5166 41.4332L47.1733 59.5799C46.6299 60.6361 45.7205 61.4582 44.615 61.8925C43.5095 62.3269 42.2837 62.3437 41.1666 61.9399L58.36 38.8732L42.3666 18.0366C43.5166 17.6222 44.7743 17.6167 45.9279 18.021C47.0814 18.4254 48.0604 19.2149 48.7 20.2566L60.62 36.3566L72.6066 20.3232C73.1542 19.2859 74.0639 18.4859 75.1628 18.0753C76.2616 17.6648 77.473 17.6724 78.5666 18.0966L72.36 26.3332L63.9533 37.2766C63.7199 37.4848 63.533 37.7401 63.4051 38.0256C63.2772 38.3111 63.2111 38.6204 63.2111 38.9332C63.2111 39.2461 63.2772 39.5554 63.4051 39.8409C63.533 40.1264 63.7199 40.3817 63.9533 40.5899L79.9666 61.9632L80 61.9599ZM0.00664562 38.5866L1.40665 31.6699C5.25331 17.9932 20.9333 12.3032 31.72 20.7699C38.0366 25.7332 39.6133 32.7599 39.3033 40.6799H3.71998C3.14331 54.8232 13.35 63.3632 26.4 58.9999C28.5155 58.2384 30.4091 56.964 31.9112 55.291C33.4132 53.6179 34.4768 51.5983 35.0066 49.4132C35.6966 47.1932 36.8333 46.8132 38.92 47.4532C38.5723 50.1612 37.615 52.755 36.1202 55.0396C34.6254 57.3243 32.632 59.2402 30.29 60.6432C26.4214 62.7593 21.9827 63.5981 17.6087 63.0395C13.2347 62.4809 9.14931 60.5536 5.93665 57.5332C2.76008 53.9579 0.840233 49.4416 0.469979 44.6732C0.469979 43.8899 0.203312 43.1566 0.0233123 42.4532C0.00708572 41.1655 -0.000692225 39.8777 -2.10476e-05 38.5899L0.00664562 38.5866ZM3.76331 37.6332H35.9433C35.7433 27.3799 29.2733 20.1066 20.6433 20.0399C11.0366 19.9066 4.16331 27.0199 3.73998 37.5866L3.76331 37.6332Z" fill="black"/>
</svg>
