<svg width="44" height="25" viewBox="0 0 44 25" fill="none" xmlns="http://www.w3.org/2000/svg">
<path d="M21.5568 8.875H16.5795C16.4886 8.23106 16.303 7.65909 16.0227 7.15909C15.7424 6.65151 15.3826 6.2197 14.9432 5.86364C14.5038 5.50757 13.9962 5.23485 13.4205 5.04545C12.8523 4.85606 12.2348 4.76136 11.5682 4.76136C10.3636 4.76136 9.31439 5.06061 8.42045 5.65909C7.52652 6.25 6.83333 7.11364 6.34091 8.25C5.84849 9.37879 5.60227 10.75 5.60227 12.3636C5.60227 14.0227 5.84849 15.4167 6.34091 16.5455C6.84091 17.6742 7.53788 18.5265 8.43182 19.1023C9.32576 19.678 10.3598 19.9659 11.5341 19.9659C12.1932 19.9659 12.803 19.8788 13.3636 19.7045C13.9318 19.5303 14.4356 19.2765 14.875 18.9432C15.3144 18.6023 15.678 18.1894 15.9659 17.7045C16.2614 17.2197 16.4659 16.6667 16.5795 16.0455L21.5568 16.0682C21.428 17.1364 21.1061 18.1667 20.5909 19.1591C20.0833 20.1439 19.3977 21.0265 18.5341 21.8068C17.678 22.5795 16.6553 23.1932 15.4659 23.6477C14.2841 24.0947 12.947 24.3182 11.4545 24.3182C9.37879 24.3182 7.52273 23.8485 5.88636 22.9091C4.25758 21.9697 2.9697 20.6098 2.02273 18.8295C1.08333 17.0492 0.613636 14.8939 0.613636 12.3636C0.613636 9.82576 1.09091 7.66667 2.04545 5.88636C3 4.10606 4.29545 2.75 5.93182 1.81818C7.56818 0.878787 9.40909 0.40909 11.4545 0.40909C12.803 0.40909 14.053 0.598484 15.2045 0.977272C16.3636 1.35606 17.3902 1.90909 18.2841 2.63636C19.178 3.35606 19.9053 4.23864 20.4659 5.28409C21.0341 6.32954 21.3977 7.52651 21.5568 8.875ZM25.0852 24V0.727272H34.267C36.0246 0.727272 37.5246 1.04167 38.767 1.67045C40.017 2.29167 40.9678 3.17424 41.6193 4.31818C42.2784 5.45454 42.608 6.79167 42.608 8.32955C42.608 9.875 42.2746 11.2045 41.608 12.3182C40.9413 13.4242 39.9754 14.2727 38.7102 14.8636C37.4527 15.4545 35.9299 15.75 34.142 15.75H27.9943V11.7955H33.3466C34.286 11.7955 35.0663 11.6667 35.6875 11.4091C36.3087 11.1515 36.7708 10.7652 37.0739 10.25C37.3845 9.73485 37.5398 9.0947 37.5398 8.32955C37.5398 7.55682 37.3845 6.9053 37.0739 6.375C36.7708 5.8447 36.3049 5.44318 35.6761 5.17045C35.0549 4.89015 34.2708 4.75 33.3239 4.75H30.0057V24H25.0852ZM37.6534 13.4091L43.4375 24H38.0057L32.3466 13.4091H37.6534Z" fill="url(#paint0_linear_278_627)"/>
<defs>
<linearGradient id="paint0_linear_278_627" x1="-1" y1="-7" x2="44.1301" y2="32.9819" gradientUnits="userSpaceOnUse">
<stop stop-color="#11496D"/>
<stop offset="1" stop-color="#44D8EA"/>
</linearGradient>
</defs>
</svg>
