<svg width="24" height="25" viewBox="0 0 24 25" fill="none" xmlns="http://www.w3.org/2000/svg">
<path d="M18.4474 18.7538L17.9389 17.8927L18.4474 18.7538ZM18.9389 17.8927L17.9389 17.8927L17.9389 17.8927L18.9389 17.8927ZM10.9656 21.9035L10.4291 22.7474L10.4291 22.7474L10.9656 21.9035ZM13.0554 21.9378L13.5639 22.7988L13.0554 21.9378ZM1.90407 8.63674L1.39214 7.77771L1.90407 8.63674ZM1.90407 9.49577L1.39214 10.3548L1.39214 10.3548L1.90407 9.49577ZM12.5119 15.2072L13.0238 16.0663L12.5119 15.2072ZM11.4881 15.2072L12 14.3482L12 14.3482L11.4881 15.2072ZM22.0959 8.63674L22.6078 7.77771L22.0959 8.63674ZM22.0959 9.49577L21.584 8.63674L21.584 8.63674L22.0959 9.49577ZM6.01756 18.7582L6.55401 17.9143L6.55401 17.9143L6.01756 18.7582ZM12.5119 2.92527L12 3.7843L12 3.7843L12.5119 2.92527ZM11.4881 2.92527L12 3.7843L12 3.7843L11.4881 2.92527ZM23.2 9.04961C23.2 8.49733 22.7523 8.04961 22.2 8.04961C21.6477 8.04961 21.2 8.49733 21.2 9.04961H23.2ZM21.2 14.4496C21.2 15.0019 21.6477 15.4496 22.2 15.4496C22.7523 15.4496 23.2 15.0019 23.2 14.4496H21.2ZM12.5119 2.92527L12 3.7843L21.584 9.49577L22.0959 8.63674L22.6078 7.77771L13.0238 2.06625L12.5119 2.92527ZM22.0959 9.49577L21.584 8.63674L12 14.3482L12.5119 15.2072L13.0238 16.0663L22.6078 10.3548L22.0959 9.49577ZM1.90407 8.63674L2.416 9.49577L12 3.7843L11.4881 2.92527L10.9761 2.06625L1.39214 7.77771L1.90407 8.63674ZM11.4881 15.2072L12 14.3482L6.06593 10.8119L5.55401 11.6709L5.04208 12.5299L10.9761 16.0663L11.4881 15.2072ZM5.55401 11.6709L6.06594 10.8119L2.416 8.63674L1.90407 9.49577L1.39214 10.3548L5.04208 12.5299L5.55401 11.6709ZM5.55401 11.6709H4.55401V17.9143H5.55401H6.55401V11.6709H5.55401ZM6.01756 18.7582L5.48111 19.6022L10.4291 22.7474L10.9656 21.9035L11.502 21.0595L6.55401 17.9143L6.01756 18.7582ZM13.0554 21.9378L13.5639 22.7988L18.9559 19.6149L18.4474 18.7538L17.9389 17.8927L12.5469 21.0767L13.0554 21.9378ZM18.9389 17.8927L19.9389 17.8927L19.9389 11.6709L18.9389 11.6709L17.9389 11.6709L17.9389 17.8927L18.9389 17.8927ZM18.4474 18.7538L18.9559 19.6149C19.5651 19.2551 19.9389 18.6003 19.9389 17.8927L18.9389 17.8927L17.9389 17.8927L17.9389 17.8927L18.4474 18.7538ZM10.9656 21.9035L10.4291 22.7474C11.3812 23.3526 12.5924 23.3725 13.5639 22.7988L13.0554 21.9378L12.5469 21.0767C12.2231 21.2679 11.8194 21.2613 11.502 21.0595L10.9656 21.9035ZM1.90407 8.63674L1.39214 7.77771C0.415995 8.35944 0.416001 9.77308 1.39214 10.3548L1.90407 9.49577L2.416 8.63674C2.74138 8.83065 2.74138 9.30186 2.416 9.49577L1.90407 8.63674ZM12.5119 15.2072L12 14.3482L12 14.3482L11.4881 15.2072L10.9761 16.0663C11.6069 16.4422 12.393 16.4422 13.0238 16.0663L12.5119 15.2072ZM22.0959 8.63674L21.584 9.49577C21.2586 9.30186 21.2586 8.83065 21.584 8.63674L22.0959 9.49577L22.6078 10.3548C23.584 9.77308 23.584 8.35944 22.6078 7.77771L22.0959 8.63674ZM5.55401 17.9143H4.55401C4.55401 18.5984 4.90372 19.2351 5.48111 19.6022L6.01756 18.7582L6.55401 17.9143L6.55401 17.9143H5.55401ZM12.5119 2.92527L13.0238 2.06625C12.393 1.69032 11.6069 1.69032 10.9761 2.06625L11.4881 2.92527L12 3.7843L12 3.7843L12.5119 2.92527ZM22.2 9.04961H21.2V14.4496H22.2H23.2V9.04961H22.2Z" fill="#124A6E"/>
</svg>
