<svg width="20" height="21" viewBox="0 0 20 21" fill="none" xmlns="http://www.w3.org/2000/svg">
<path d="M13.8262 6.775C13.83 6.775 13.835 6.775 13.84 6.775C13.9706 6.775 14.0919 6.81563 14.1912 6.88563L14.1894 6.88438C14.2619 6.9475 14.3106 7.03625 14.3225 7.13625V7.13813C14.335 7.21438 14.3419 7.30188 14.3419 7.39125C14.3419 7.43188 14.3406 7.47188 14.3375 7.51188V7.50625C14.1969 8.98688 13.5869 12.5775 13.2769 14.235C13.1456 14.9369 12.8875 15.1719 12.6375 15.1944C12.0944 15.245 11.6819 14.8356 11.1556 14.4906C10.3319 13.95 9.86624 13.6138 9.06686 13.0869C8.14249 12.4788 8.74186 12.1431 9.26811 11.5969C9.40624 11.4531 11.8006 9.275 11.8475 9.0775C11.85 9.06563 11.8512 9.0525 11.8512 9.03875C11.8512 8.99 11.8331 8.94563 11.8037 8.91188C11.7712 8.89063 11.7306 8.87875 11.6881 8.87875C11.66 8.87875 11.6331 8.88438 11.6081 8.89375L11.6094 8.89313C11.5269 8.91188 10.211 9.78146 7.66186 11.5019C7.38374 11.7213 7.03249 11.86 6.64999 11.8763H6.64624C6.10436 11.8106 5.61249 11.69 5.14561 11.5181L5.19186 11.5331C4.60561 11.3419 4.13999 11.2412 4.17999 10.9175C4.20124 10.7492 4.43332 10.5769 4.87624 10.4006C7.60457 9.21188 9.42395 8.42833 10.3344 8.05C11.3387 7.51688 12.5031 7.07813 13.7275 6.79375L13.8256 6.77437L13.8262 6.775ZM9.95624 1.14062C4.76749 1.15312 0.565613 5.3625 0.565613 10.5531C0.565613 15.7512 4.77936 19.9656 9.97811 19.9656C15.1769 19.9656 19.3906 15.7519 19.3906 10.5531C19.3906 5.3625 15.1887 1.15312 10.0012 1.14062H9.99999C9.98541 1.14062 9.97082 1.14062 9.95624 1.14062Z" fill="white"/>
</svg>
