<svg width="80" height="80" viewBox="0 0 80 80" fill="none" xmlns="http://www.w3.org/2000/svg">
<path d="M42.9313 5.7468C41.1567 4.74883 38.8432 4.7533 37.0672 5.7468C28.1722 10.6557 19.277 15.566 10.3804 20.4727C8.64922 21.3834 7.48159 23.2425 7.50022 25.172V54.832C7.48772 56.7993 8.71554 58.6763 10.4914 59.5745C13.0468 60.934 15.5295 62.4315 18.1311 63.7005C21.1363 65.1773 24.8961 65.5038 27.938 63.9638C30.4072 62.6875 31.504 59.8488 31.5007 57.24C31.5207 47.4515 31.504 37.6628 31.5085 27.874C31.5672 27.439 31.2405 26.974 30.766 26.9845C29.6292 26.9665 28.491 26.974 27.3542 26.9815C26.9247 26.941 26.5055 27.2978 26.538 27.7295C26.5227 37.455 26.541 47.1835 26.5287 56.9105C26.5535 58.256 25.6445 59.549 24.3478 60.0035C21.353 61.0533 12.8049 55.503 12.8049 55.503C12.4912 55.3578 12.292 55.0175 12.3228 54.6795C12.3228 44.894 12.3243 35.1083 12.3228 25.3243C12.2797 24.9298 12.5228 24.5745 12.885 24.4135C21.7508 19.5335 30.612 14.6414 39.4777 9.7584C39.7857 9.55288 40.215 9.5535 40.5222 9.7599C49.388 14.6414 58.2508 19.529 67.118 24.4092C67.4815 24.57 67.7143 24.9313 67.6773 25.3243C67.6758 35.1083 67.6803 44.894 67.6743 54.6783C67.7005 55.0245 67.5215 55.36 67.1982 55.512C58.4152 60.3655 49.5322 65.0625 40.8287 70.057C40.449 70.2748 40.0187 70.5215 39.5932 70.2815C37.3045 69.0155 35.0435 67.7003 32.7622 66.422C32.5142 66.2673 32.1985 66.2008 31.9397 66.374C30.917 66.913 29.955 67.3495 28.7805 67.8145C27.131 68.4675 27.3945 68.7345 28.8822 69.6013C31.55 71.111 34.2222 72.6148 36.89 74.126C38.6462 75.222 41.006 75.3 42.8187 74.2873C51.7153 69.3845 60.609 64.476 69.5073 59.5733C71.2783 58.67 72.5123 56.8005 72.4998 54.8318V25.172C72.517 23.2816 71.394 21.4557 69.715 20.5315C60.789 15.5987 51.8588 10.6766 42.9313 5.7468Z" fill="#8CC84B"/>
<path d="M56.3548 28.0156C52.863 26.1476 48.709 26.0481 44.8287 26.2923C42.0255 26.5693 39.0773 27.3428 37.035 29.3523C34.9403 31.3723 34.4843 34.6343 35.4793 37.2713C36.1923 39.1348 37.987 40.3466 39.843 40.9876C42.2337 41.8316 44.7447 42.0926 47.2565 42.3536C49.5475 42.5916 51.8393 42.8298 54.0413 43.5106C54.9408 43.8086 55.9883 44.2646 56.2638 45.2433C56.5183 46.4023 56.2393 47.7496 55.2983 48.5548C52.3093 50.9206 43.9947 50.5581 41.0415 48.6961C39.8475 47.9028 39.333 46.4986 39.1238 45.1603C39.1005 44.7433 38.7647 44.3608 38.312 44.3926C37.1782 44.3791 36.0445 44.3821 34.9108 44.3911C34.5153 44.3578 34.104 44.6393 34.0823 45.0431C33.8493 51.1723 39.4785 53.8443 44.7598 54.4326C47.777 54.7201 50.8605 54.7036 53.8317 54.0561C56.0652 53.5476 58.3047 52.6111 59.8422 50.8908C61.7382 48.8001 62.111 45.6873 61.2607 43.0831C60.6107 41.1398 58.753 39.8933 56.854 39.2521C54.2715 38.3666 51.211 37.8906 48.872 37.6678C45.4722 37.3441 41.4322 37.4763 40.47 35.2423C40.0862 34.0726 40.4128 32.6201 41.4878 31.9006C44.332 29.9713 50.1207 30.2276 53.0662 31.6688C54.4187 32.3461 55.2025 33.7371 55.526 35.1413C55.586 35.5538 55.8635 35.9843 56.341 35.9663C57.467 35.9888 58.593 35.9723 59.7188 35.9738C60.1055 36.0008 60.529 35.7826 60.6045 35.3866C60.5567 32.4516 59.058 29.4471 56.3548 28.0156Z" fill="#8CC84B"/>
</svg>
