<svg width="80" height="80" viewBox="0 0 80 80" fill="none" xmlns="http://www.w3.org/2000/svg">
<path d="M74.709 15.3649L41.8545 74.1142C41.176 75.3269 39.4335 75.3342 38.7448 74.1272L5.23901 15.3704C4.48901 14.0549 5.61351 12.4617 7.10401 12.7279L39.994 18.6069C40.2038 18.6444 40.4186 18.6441 40.6283 18.6059L72.8303 12.7364C74.3158 12.4657 75.446 14.0469 74.709 15.3649Z" fill="url(#paint0_linear_283_1214)"/>
<path d="M55.661 5.01726L31.3477 9.78126C31.1534 9.81928 30.9773 9.92081 30.847 10.0699C30.7167 10.219 30.6396 10.4071 30.628 10.6048L29.1325 35.8643C29.0975 36.4593 29.6437 36.921 30.2242 36.787L36.9935 35.225C37.627 35.0788 38.1992 35.6368 38.069 36.2735L36.058 46.1218C35.9225 46.7843 36.5447 47.3513 37.192 47.1548L41.373 45.8843C42.0212 45.6875 42.644 46.256 42.507 46.9193L39.311 62.3885C39.111 63.356 40.398 63.8835 40.9347 63.054L41.2932 62.5L61.105 22.962C61.4367 22.3 60.865 21.5453 60.1375 21.6855L53.17 23.0303C52.515 23.1565 51.958 22.5468 52.1427 21.906L56.6905 6.14101C56.8755 5.49901 56.3165 4.88876 55.661 5.01726Z" fill="url(#paint1_linear_283_1214)"/>
<defs>
<linearGradient id="paint0_linear_283_1214" x1="4.42085" y1="10.628" x2="45.3088" y2="66.1571" gradientUnits="userSpaceOnUse">
<stop stop-color="#41D1FF"/>
<stop offset="1" stop-color="#BD34FE"/>
</linearGradient>
<linearGradient id="paint1_linear_283_1214" x1="38.1044" y1="6.3105" x2="45.5008" y2="57.0492" gradientUnits="userSpaceOnUse">
<stop stop-color="#FFEA83"/>
<stop offset="0.0833" stop-color="#FFDD35"/>
<stop offset="1" stop-color="#FFA800"/>
</linearGradient>
</defs>
</svg>
